<?xml version="1.0" encoding="iso-8859-1"?>
<!-- Generator: Adobe Illustrator 19.0.0, SVG Export Plug-In . SVG Version: 6.00 Build 0)  -->
<svg version="1.1" id="Layer_1" xmlns="http://www.w3.org/2000/svg" xmlns:xlink="http://www.w3.org/1999/xlink" x="0px" y="0px"
	 viewBox="0 0 441.127 441.127" style="enable-background:new 0 0 441.127 441.127;" xml:space="preserve">
<g>
	<path d="M341.697,185.898c37.174,0,70.732,15.759,94.361,40.94c-1.443-46.101-39.248-83.036-85.699-83.036
		C342.546,77.669,286.297,26.37,218.063,26.37c-68.234,0-124.482,51.299-132.296,117.431C38.402,143.801,0,182.199,0,229.565
		s38.397,85.763,85.763,85.763h126.505C212.268,243.96,270.329,185.898,341.697,185.898z"/>
	<path d="M341.697,215.898c-54.826,0-99.43,44.604-99.43,99.43s44.604,99.429,99.43,99.429s99.43-44.604,99.43-99.429
		S396.523,215.898,341.697,215.898z M395.873,348.29l-21.213,21.213l-32.963-32.963l-32.963,32.963l-21.213-21.213l32.963-32.963
		l-32.963-32.963l21.213-21.213l32.963,32.963l32.963-32.963l21.213,21.213l-32.963,32.963L395.873,348.29z"/>
</g>
<g>
</g>
<g>
</g>
<g>
</g>
<g>
</g>
<g>
</g>
<g>
</g>
<g>
</g>
<g>
</g>
<g>
</g>
<g>
</g>
<g>
</g>
<g>
</g>
<g>
</g>
<g>
</g>
<g>
</g>
</svg>
