<?xml version="1.0" encoding="iso-8859-1"?>
<!-- Generator: Adobe Illustrator 17.1.0, SVG Export Plug-In . SVG Version: 6.00 Build 0)  -->
<!DOCTYPE svg PUBLIC "-//W3C//DTD SVG 1.1//EN" "http://www.w3.org/Graphics/SVG/1.1/DTD/svg11.dtd">
<svg version="1.1" id="Capa_1" xmlns="http://www.w3.org/2000/svg" xmlns:xlink="http://www.w3.org/1999/xlink" x="0px" y="0px"
	 viewBox="0 0 279.967 279.967" style="enable-background:new 0 0 279.967 279.967;" xml:space="preserve">
<path style="fill:#222220;" d="M272.467,161.817c4.142,0,7.5-3.358,7.5-7.5V69.458c0-4.142-3.358-7.5-7.5-7.5H60.907
	c-4.142,0-7.5,3.358-7.5,7.5V220.58c0,10.441-8.495,18.937-18.937,18.937h-0.534C23.495,239.516,15,231.021,15,220.58V40.451
	h215.204c4.142,0,7.5-3.358,7.5-7.5s-3.358-7.5-7.5-7.5H7.5c-4.142,0-7.5,3.358-7.5,7.5V220.58
	c0,18.713,15.224,33.937,33.937,33.937h0.534h201.198c24.426,0,44.299-19.873,44.299-44.299c0-4.142-3.358-7.5-7.5-7.5
	s-7.5,3.358-7.5,7.5c0,16.156-13.144,29.299-29.299,29.299H62.619c3.653-5.412,5.788-11.93,5.788-18.937V76.958h196.56v77.359
	C264.967,158.459,268.325,161.817,272.467,161.817z"/>
<g>
</g>
<g>
</g>
<g>
</g>
<g>
</g>
<g>
</g>
<g>
</g>
<g>
</g>
<g>
</g>
<g>
</g>
<g>
</g>
<g>
</g>
<g>
</g>
<g>
</g>
<g>
</g>
<g>
</g>
</svg>
