<?xml version="1.0" encoding="iso-8859-1"?>
<!-- Generator: Adobe Illustrator 18.0.0, SVG Export Plug-In . SVG Version: 6.00 Build 0)  -->
<!DOCTYPE svg PUBLIC "-//W3C//DTD SVG 1.1//EN" "http://www.w3.org/Graphics/SVG/1.1/DTD/svg11.dtd">
<svg version="1.1" id="Capa_1" xmlns="http://www.w3.org/2000/svg" xmlns:xlink="http://www.w3.org/1999/xlink" x="0px" y="0px"
	 viewBox="0 0 390 390" style="enable-background:new 0 0 390 390;" xml:space="preserve">
<g>
	<path d="M182.681,205.334c0,5.21,4.227,9.436,9.436,9.436h5.765c5.21,0,9.436-4.226,9.436-9.436c0-5.211-4.226-9.438-9.436-9.438
		h-5.765C186.908,195.897,182.681,200.123,182.681,205.334z"/>
	<path d="M383.889,126.058c-4.478-5.191-10.868-8.314-17.674-8.686V64.899c0-25.562-20.797-46.359-46.361-46.359h-75.278
		c-25.052,0-38.351,10.578-48.062,18.303c-7.807,6.208-12.518,9.955-22.626,9.955H65.099c-22.78,0-41.313,18.062-41.313,40.264
		v30.311c-6.806,0.371-13.196,3.494-17.674,8.686c-4.78,5.541-6.912,12.888-5.839,20.125l30.194,203.803
		c1.828,12.338,12.417,21.475,24.89,21.475h279.286c12.473,0,23.063-9.137,24.891-21.475l30.195-203.802
		C390.801,138.945,388.669,131.599,383.889,126.058z M161.833,320.412v-10.428c0-2.399,1.945-4.345,4.345-4.345h32.443
		c2.399,0,4.345,1.945,4.345,4.345v10.428c0,2.4-1.945,4.345-4.345,4.345h-32.443C163.778,324.757,161.833,322.813,161.833,320.412z
		 M195,160.323c4.274,0,7.738-3.467,7.738-7.738v-10.718h6.07c4.615,0,8.445,3.564,8.776,8.167l4.893,67.999
		c0.175,2.438-0.671,4.838-2.336,6.626c-1.664,1.79-3.996,2.806-6.441,2.806h-37.401c-2.444,0-4.777-1.016-6.441-2.806
		c-1.665-1.788-2.511-4.188-2.336-6.626l4.893-67.999c0.331-4.603,4.161-8.167,8.776-8.167h6.07v10.718
		C187.262,156.856,190.726,160.323,195,160.323z M198.621,244.81c2.399,0,4.345,1.945,4.345,4.345v10.429
		c0,2.399-1.945,4.345-4.345,4.345h-32.443c-2.4,0-4.345-1.945-4.345-4.345v-10.429c0-2.399,1.945-4.345,4.345-4.345H198.621z
		 M228.167,350.538c0,2.399-1.945,4.345-4.345,4.345h-32.443c-2.399,0-4.345-1.945-4.345-4.345V340.11
		c0-2.4,1.946-4.346,4.345-4.346h32.443c2.399,0,4.345,1.945,4.345,4.346V350.538z M228.167,289.708c0,2.4-1.945,4.345-4.345,4.345
		h-32.443c-2.399,0-4.345-1.944-4.345-4.345V279.28c0-2.4,1.946-4.346,4.345-4.346h32.443c2.399,0,4.345,1.945,4.345,4.346V289.708z
		 M335.919,117.333H54.081V87.062c0-6.239,5.602-9.968,11.019-9.968h108.788c20.687,0,32.219-9.173,41.484-16.542
		c8.552-6.803,14.732-11.717,29.204-11.717h75.278c8.858,0,16.066,7.206,16.066,16.064V117.333z"/>
</g>
<g>
</g>
<g>
</g>
<g>
</g>
<g>
</g>
<g>
</g>
<g>
</g>
<g>
</g>
<g>
</g>
<g>
</g>
<g>
</g>
<g>
</g>
<g>
</g>
<g>
</g>
<g>
</g>
<g>
</g>
</svg>
