<?xml version="1.0" encoding="iso-8859-1"?>
<!-- Generator: Adobe Illustrator 17.1.0, SVG Export Plug-In . SVG Version: 6.00 Build 0)  -->
<!DOCTYPE svg PUBLIC "-//W3C//DTD SVG 1.1//EN" "http://www.w3.org/Graphics/SVG/1.1/DTD/svg11.dtd">
<svg version="1.1" id="Capa_1" xmlns="http://www.w3.org/2000/svg" xmlns:xlink="http://www.w3.org/1999/xlink" x="0px" y="0px"
	 viewBox="0 0 279.967 279.967" style="enable-background:new 0 0 279.967 279.967;" xml:space="preserve">
<path style="fill:#222220;" d="M272.467,61.958h-68.031h-33.75H60.907c-4.143,0-7.5,3.358-7.5,7.5V220.58
	c0,10.441-8.495,18.937-18.937,18.937h-0.534C23.495,239.516,15,231.021,15,220.58V40.451h215.204c4.143,0,7.5-3.358,7.5-7.5
	s-3.357-7.5-7.5-7.5H7.5c-4.143,0-7.5,3.358-7.5,7.5V220.58c0,18.713,15.224,33.937,33.937,33.937h0.534h201.197
	c24.427,0,44.299-19.873,44.299-44.299V69.458C279.967,65.316,276.609,61.958,272.467,61.958z M196.936,76.958v55.525h-18.75V76.958
	H196.936z M68.407,220.58V76.958h94.778v63.025c0,4.142,3.357,7.5,7.5,7.5h9.375v11.042h-9.375c-4.143,0-7.5,3.358-7.5,7.5
	s3.357,7.5,7.5,7.5h9.375V186h-9.375c-4.143,0-7.5,3.358-7.5,7.5s3.357,7.5,7.5,7.5h9.375v12.475h-9.375c-4.143,0-7.5,3.358-7.5,7.5
	s3.357,7.5,7.5,7.5h9.375v11.042H62.619C66.272,234.104,68.407,227.586,68.407,220.58z M264.967,210.217
	c0,16.156-13.144,29.299-29.299,29.299h-40.607v-11.042h9.375c4.143,0,7.5-3.358,7.5-7.5s-3.357-7.5-7.5-7.5h-9.375V201h9.375
	c4.143,0,7.5-3.358,7.5-7.5s-3.357-7.5-7.5-7.5h-9.375v-12.475h9.375c4.143,0,7.5-3.358,7.5-7.5s-3.357-7.5-7.5-7.5h-9.375v-11.042
	h9.375c4.143,0,7.5-3.358,7.5-7.5V76.958h53.031V210.217z"/>
<g>
</g>
<g>
</g>
<g>
</g>
<g>
</g>
<g>
</g>
<g>
</g>
<g>
</g>
<g>
</g>
<g>
</g>
<g>
</g>
<g>
</g>
<g>
</g>
<g>
</g>
<g>
</g>
<g>
</g>
</svg>
