<?xml version="1.0" encoding="iso-8859-1"?>
<!-- Generator: Adobe Illustrator 18.0.0, SVG Export Plug-In . SVG Version: 6.00 Build 0)  -->
<!DOCTYPE svg PUBLIC "-//W3C//DTD SVG 1.1//EN" "http://www.w3.org/Graphics/SVG/1.1/DTD/svg11.dtd">
<svg version="1.1" id="Capa_1" xmlns="http://www.w3.org/2000/svg" xmlns:xlink="http://www.w3.org/1999/xlink" x="0px" y="0px"
	 viewBox="0 0 59 59" style="enable-background:new 0 0 59 59;" xml:space="preserve">
<g>
	<path d="M15.5,14h18c0.552,0,1-0.448,1-1s-0.448-1-1-1h-18c-0.552,0-1,0.448-1,1S14.948,14,15.5,14z"/>
	<path d="M15.5,34h18c0.552,0,1-0.448,1-1s-0.448-1-1-1h-18c-0.552,0-1,0.448-1,1S14.948,34,15.5,34z"/>
	<path d="M35.5,27c0,0.552,0.448,1,1,1h7c0.552,0,1-0.448,1-1s-0.448-1-1-1h-7C35.948,26,35.5,26.448,35.5,27z"/>
	<path d="M15.5,21h6c0.552,0,1-0.448,1-1s-0.448-1-1-1h-6c-0.552,0-1,0.448-1,1S14.948,21,15.5,21z"/>
	<path d="M30.5,20c0,0.552,0.448,1,1,1h7c0.552,0,1-0.448,1-1s-0.448-1-1-1h-7C30.948,19,30.5,19.448,30.5,20z"/>
	<path d="M27.21,20.71c0.18-0.19,0.29-0.45,0.29-0.71c0-0.26-0.11-0.52-0.29-0.71c-0.38-0.37-1.04-0.37-1.42,0
		c-0.18,0.19-0.29,0.45-0.29,0.71c0,0.26,0.11,0.52,0.29,0.71C25.98,20.89,26.24,21,26.5,21C26.76,21,27.02,20.89,27.21,20.71z"/>
	<path d="M19.5,27c0,0.552,0.448,1,1,1h11c0.552,0,1-0.448,1-1s-0.448-1-1-1h-11C19.948,26,19.5,26.448,19.5,27z"/>
	<path d="M15.5,28c0.26,0,0.52-0.11,0.71-0.29c0.18-0.19,0.29-0.45,0.29-0.71c0-0.26-0.11-0.52-0.29-0.71
		c-0.37-0.37-1.05-0.37-1.42,0c-0.18,0.19-0.29,0.45-0.29,0.71c0,0.26,0.11,0.52,0.29,0.71C14.98,27.89,15.24,28,15.5,28z"/>
	<path d="M43.5,21c0.26,0,0.52-0.11,0.71-0.29c0.18-0.19,0.29-0.45,0.29-0.71c0-0.26-0.11-0.52-0.29-0.71
		c-0.37-0.37-1.05-0.37-1.42,0c-0.18,0.19-0.29,0.45-0.29,0.71c0,0.26,0.11,0.52,0.29,0.71C42.98,20.89,43.24,21,43.5,21z"/>
	<path d="M37.79,32.29c-0.18,0.19-0.29,0.45-0.29,0.71c0,0.26,0.11,0.52,0.29,0.71C37.98,33.89,38.24,34,38.5,34
		c0.26,0,0.52-0.11,0.71-0.29c0.18-0.19,0.29-0.45,0.29-0.71c0-0.26-0.11-0.52-0.29-0.71C38.84,31.92,38.17,31.92,37.79,32.29z"/>
	<path d="M42.79,32.29c-0.18,0.19-0.29,0.45-0.29,0.71c0,0.26,0.11,0.52,0.29,0.71C42.98,33.89,43.24,34,43.5,34
		c0.26,0,0.52-0.11,0.71-0.29c0.18-0.19,0.29-0.45,0.29-0.71c0-0.26-0.11-0.52-0.29-0.71C43.84,31.92,43.16,31.92,42.79,32.29z"/>
	<g>
		<path d="M10.5,38V21.653V2h30v6.33c0,0.921,0.749,1.67,1.67,1.67h6.33v11.653V38h8.604L50.5,25.453V8.976l0.11-0.281l-8.334-8.333
			L41.914,0H8.5v25.453L1.896,38H10.5z M42.5,3.414L47.086,8H42.5V3.414z"/>
		<path d="M41.986,40c-0.268,0-0.486,0.218-0.486,0.486v4.028c0,1.371-1.115,2.486-2.486,2.486H19.986
			c-1.371,0-2.486-1.115-2.486-2.486v-4.028c0-0.268-0.218-0.486-0.486-0.486H1.5v15.375C1.5,57.374,3.126,59,5.125,59h48.749
			c1.999,0,3.626-1.626,3.626-3.625V40H41.986z"/>
	</g>
</g>
<g>
</g>
<g>
</g>
<g>
</g>
<g>
</g>
<g>
</g>
<g>
</g>
<g>
</g>
<g>
</g>
<g>
</g>
<g>
</g>
<g>
</g>
<g>
</g>
<g>
</g>
<g>
</g>
<g>
</g>
</svg>
