<?xml version="1.0" encoding="iso-8859-1"?>
<!-- Generator: Adobe Illustrator 18.0.0, SVG Export Plug-In . SVG Version: 6.00 Build 0)  -->
<!DOCTYPE svg PUBLIC "-//W3C//DTD SVG 1.1//EN" "http://www.w3.org/Graphics/SVG/1.1/DTD/svg11.dtd">
<svg version="1.1" id="Capa_1" xmlns="http://www.w3.org/2000/svg" xmlns:xlink="http://www.w3.org/1999/xlink" x="0px" y="0px"
	 viewBox="0 0 59.124 59.124" style="enable-background:new 0 0 59.124 59.124;" xml:space="preserve">
<path d="M58.746,16.141l0.354-0.347l-0.022-0.966L41.133,0v9.108c-0.001,0-0.003,0-0.004,0c-0.397,0-0.782,0.007-1.181,0.021
	c-7.897,0.285-14.785,4.553-18.31,10.994h-11.04L0.565,35.155l-0.432,0.022v0.782l-0.108,0.253l0.108,0.159v19.369
	c0,1.866,1.519,3.384,3.385,3.384h51.23c1.866,0,3.385-1.518,3.385-3.384V36.353l0.111-0.174l-0.126-0.295l-0.038-0.761h-0.421
	L50.02,23.653L58.746,16.141z M55.275,35.124H39.133v7h-20v-7H2.99l8.678-13h9.007c-0.027,0.066-0.049,0.132-0.076,0.198
	c-0.079,0.197-0.156,0.394-0.228,0.594c-0.163,0.444-0.315,0.888-0.442,1.332c-1.139,3.977-0.728,6.9-0.709,7.023l0.393,2.659
	l1.44-2.269c6.379-10.041,17.055-9.69,20.08-9.369v9.013v0l4.874-4.196l2.489-2.143L55.275,35.124z"/>
<g>
</g>
<g>
</g>
<g>
</g>
<g>
</g>
<g>
</g>
<g>
</g>
<g>
</g>
<g>
</g>
<g>
</g>
<g>
</g>
<g>
</g>
<g>
</g>
<g>
</g>
<g>
</g>
<g>
</g>
</svg>
