<?xml version="1.0" encoding="iso-8859-1"?>
<!-- Generator: Adobe Illustrator 16.0.0, SVG Export Plug-In . SVG Version: 6.00 Build 0)  -->
<!DOCTYPE svg PUBLIC "-//W3C//DTD SVG 1.1//EN" "http://www.w3.org/Graphics/SVG/1.1/DTD/svg11.dtd">
<svg version="1.1" id="Capa_1" xmlns="http://www.w3.org/2000/svg" xmlns:xlink="http://www.w3.org/1999/xlink" x="0px" y="0px"
	 width="45px" height="45px" viewBox="0 0 45 45" style="enable-background:new 0 0 45 45;" xml:space="preserve">
<g>
	<path d="M42.5,19.408H40V1.843c0-0.69-0.561-1.25-1.25-1.25H6.25C5.56,0.593,5,1.153,5,1.843v17.563H2.5
		c-1.381,0-2.5,1.119-2.5,2.5v20c0,1.381,1.119,2.5,2.5,2.5h40c1.381,0,2.5-1.119,2.5-2.5v-20C45,20.525,43.881,19.408,42.5,19.408z
		 M32.531,38.094H12.468v-5h20.063V38.094z M37.5,19.408H35c-1.381,0-2.5,1.119-2.5,2.5v5h-4.374v-10.73h3.125
		c0.505,0,0.961-0.305,1.153-0.771c0.193-0.467,0.087-1.005-0.271-1.362l-8.749-8.75c-0.488-0.488-1.279-0.488-1.768,0l-8.751,8.749
		c-0.357,0.357-0.464,0.895-0.271,1.362c0.193,0.467,0.649,0.771,1.155,0.771h3.125v10.731h-4.376v-5c0-1.381-1.119-2.5-2.5-2.5
		h-2.5V3.093h30L37.5,19.408L37.5,19.408z"/>
</g>
<g>
</g>
<g>
</g>
<g>
</g>
<g>
</g>
<g>
</g>
<g>
</g>
<g>
</g>
<g>
</g>
<g>
</g>
<g>
</g>
<g>
</g>
<g>
</g>
<g>
</g>
<g>
</g>
<g>
</g>
</svg>
