<?xml version="1.0" encoding="iso-8859-1"?>
<!-- Generator: Adobe Illustrator 16.0.0, SVG Export Plug-In . SVG Version: 6.00 Build 0)  -->
<!DOCTYPE svg PUBLIC "-//W3C//DTD SVG 1.1//EN" "http://www.w3.org/Graphics/SVG/1.1/DTD/svg11.dtd">
<svg version="1.1" id="Capa_1" xmlns="http://www.w3.org/2000/svg" xmlns:xlink="http://www.w3.org/1999/xlink" x="0px" y="0px"
	 width="77.749px" height="77.749px" viewBox="0 0 77.749 77.749" style="enable-background:new 0 0 77.749 77.749;"
	 xml:space="preserve">
<g>
	<path d="M54.04,0H14.908c-2.627,0-4.767,2.141-4.767,4.768V72.98c0,2.631,2.14,4.769,4.767,4.769H62.84
		c2.63,0,4.768-2.138,4.768-4.769V14.743L54.04,0z M55.165,7.135l5.947,6.463h-5.947V7.135z M63.604,72.98
		c0,0.42-0.344,0.765-0.766,0.765h-47.93c-0.421,0-0.763-0.345-0.763-0.765V4.768c0-0.421,0.342-0.762,0.763-0.762h24.413v1.717
		h-5.18v2.892h5.18v5.676h-5.18v2.891h5.18v5.442h-5.18v2.891h5.18v0.217v0.166v4.281h-5.18v2.892h5.18v5.676h-5.18v2.892h5.18
		v5.441h-5.18v2.891h2.77c-1.059,0.053-1.902,0.92-1.902,1.99v1.141h0.016v8.649c0,2.246,1.828,4.074,4.074,4.074
		s4.073-1.828,4.073-4.074v-8.649h0.002v-1.141c0-1.104-0.896-2-2-2h-0.057v-4.438h4.756v-2.892h-4.756v-5.441h4.756v-2.892h-4.756
		v-5.677h4.756v-2.891h-4.756v-4.664h4.756v-2.891h-4.756v-5.442h4.756V9.842h-4.756V4.165h4.756v-0.16h5.285V15.6
		c0,1.104,0.899,1.999,2.004,1.999h10.441V72.98z M41.7,56.65v4.832c0,1.451-1.177,2.625-2.625,2.625
		c-1.449,0-2.625-1.174-2.625-2.625V56.65H41.7z"/>
</g>
<g>
</g>
<g>
</g>
<g>
</g>
<g>
</g>
<g>
</g>
<g>
</g>
<g>
</g>
<g>
</g>
<g>
</g>
<g>
</g>
<g>
</g>
<g>
</g>
<g>
</g>
<g>
</g>
<g>
</g>
</svg>
