<?xml version="1.0" encoding="iso-8859-1"?>
<!-- Generator: Adobe Illustrator 16.0.0, SVG Export Plug-In . SVG Version: 6.00 Build 0)  -->
<!DOCTYPE svg PUBLIC "-//W3C//DTD SVG 1.1//EN" "http://www.w3.org/Graphics/SVG/1.1/DTD/svg11.dtd">
<svg version="1.1" id="Capa_1" xmlns="http://www.w3.org/2000/svg" xmlns:xlink="http://www.w3.org/1999/xlink" x="0px" y="0px"
	 width="96.992px" height="96.992px" viewBox="0 0 96.992 96.992" style="enable-background:new 0 0 96.992 96.992;"
	 xml:space="preserve">
<g>
	<g>
		<path d="M82.297,17.002L66.028,0.732C65.559,0.263,64.924,0,64.26,0h-9.527v6.883H52.15V4.984h-3.654L48.503,0h-32.04
			c-1.381,0-2.5,1.119-2.5,2.5v91.992c0,1.381,1.119,2.5,2.5,2.5h64.066c1.381,0,2.5-1.119,2.5-2.5V18.769
			C83.029,18.105,82.766,17.471,82.297,17.002z M52.152,13.951v-1.899h2.58v8.387h-2.58V18.54h-3.656v-4.588L52.152,13.951
			L52.152,13.951z M48.496,32.006v-4.588h3.656v-1.9h2.58v8.387h-2.58v-1.899H48.496z M42.259,5.315h2.581v1.897h3.656v4.589H44.84
			v1.9h-2.581V5.315z M42.259,18.78h2.581v1.898h3.656v4.587H44.84v1.9h-2.581V18.78z M48.496,57.357
			c-3.625,0-6.563-2.81-6.563-7.047c0-10.918,2.938-15.057,6.563-15.057s6.562,4.138,6.562,15.057
			C55.059,54.549,52.121,57.357,48.496,57.357z M62.051,22.342c-0.337,0-0.658-0.133-0.896-0.371
			c-0.237-0.238-0.372-0.561-0.372-0.897l0.002-15.126L77.18,22.343L62.051,22.342L62.051,22.342z"/>
		<path d="M49.48,50.311h-1.97c-1.268,0-2.292,1.026-2.292,2.295c0,1.266,1.025,2.293,2.292,2.293h1.97
			c1.27,0,2.293-1.027,2.293-2.293C51.773,51.338,50.749,50.311,49.48,50.311z"/>
	</g>
</g>
<g>
</g>
<g>
</g>
<g>
</g>
<g>
</g>
<g>
</g>
<g>
</g>
<g>
</g>
<g>
</g>
<g>
</g>
<g>
</g>
<g>
</g>
<g>
</g>
<g>
</g>
<g>
</g>
<g>
</g>
</svg>
