<?xml version="1.0" encoding="iso-8859-1"?>
<!-- Generator: Adobe Illustrator 16.0.0, SVG Export Plug-In . SVG Version: 6.00 Build 0)  -->
<!DOCTYPE svg PUBLIC "-//W3C//DTD SVG 1.1//EN" "http://www.w3.org/Graphics/SVG/1.1/DTD/svg11.dtd">
<svg version="1.1" id="Capa_1" xmlns="http://www.w3.org/2000/svg" xmlns:xlink="http://www.w3.org/1999/xlink" x="0px" y="0px"
	 width="96.992px" height="96.992px" viewBox="0 0 96.992 96.992" style="enable-background:new 0 0 96.992 96.992;"
	 xml:space="preserve">
<g>
	<path d="M82.297,16.976L66.028,0.732C65.559,0.263,64.924,0,64.26,0H16.463c-1.381,0-2.5,1.119-2.5,2.5v91.992
		c0,1.381,1.119,2.5,2.5,2.5h64.066c1.381,0,2.5-1.119,2.5-2.5V18.744C83.029,18.081,82.766,17.445,82.297,16.976z M62.051,22.342
		c-0.337,0-0.658-0.134-0.896-0.372c-0.237-0.238-0.372-0.561-0.372-0.897l0.002-15.126L77.18,22.342H62.051z"/>
</g>
<g>
</g>
<g>
</g>
<g>
</g>
<g>
</g>
<g>
</g>
<g>
</g>
<g>
</g>
<g>
</g>
<g>
</g>
<g>
</g>
<g>
</g>
<g>
</g>
<g>
</g>
<g>
</g>
<g>
</g>
</svg>
