<?xml version="1.0" encoding="iso-8859-1"?>
<!-- Generator: Adobe Illustrator 16.0.0, SVG Export Plug-In . SVG Version: 6.00 Build 0)  -->
<!DOCTYPE svg PUBLIC "-//W3C//DTD SVG 1.1//EN" "http://www.w3.org/Graphics/SVG/1.1/DTD/svg11.dtd">
<svg version="1.1" id="Capa_1" xmlns="http://www.w3.org/2000/svg" xmlns:xlink="http://www.w3.org/1999/xlink" x="0px" y="0px"
	 width="470.586px" height="470.586px" viewBox="0 0 470.586 470.586" style="enable-background:new 0 0 470.586 470.586;"
	 xml:space="preserve">
<g>
	<path d="M327.081,0H90.231c-15.9,0-28.85,12.959-28.85,28.859v412.863c0,15.924,12.95,28.863,28.85,28.863H380.35
		c15.911,0,28.855-12.939,28.855-28.863V89.234L327.081,0z M333.891,43.187l35.996,39.118h-35.996V43.187z M384.978,441.723
		c0,2.542-2.087,4.629-4.628,4.629H90.231c-2.547,0-4.616-2.087-4.616-4.629V28.859c0-2.548,2.069-4.613,4.616-4.613h219.414v70.181
		c0,6.682,5.443,12.099,12.129,12.099h63.198v335.196H384.978z"/>
</g>
<g>
</g>
<g>
</g>
<g>
</g>
<g>
</g>
<g>
</g>
<g>
</g>
<g>
</g>
<g>
</g>
<g>
</g>
<g>
</g>
<g>
</g>
<g>
</g>
<g>
</g>
<g>
</g>
<g>
</g>
</svg>
