<?xml version="1.0" encoding="iso-8859-1"?>
<!-- Generator: Adobe Illustrator 16.0.0, SVG Export Plug-In . SVG Version: 6.00 Build 0)  -->
<!DOCTYPE svg PUBLIC "-//W3C//DTD SVG 1.1//EN" "http://www.w3.org/Graphics/SVG/1.1/DTD/svg11.dtd">
<svg version="1.1" id="Capa_1" xmlns="http://www.w3.org/2000/svg" xmlns:xlink="http://www.w3.org/1999/xlink" x="0px" y="0px"
	 width="438.533px" height="438.533px" viewBox="0 0 438.533 438.533" style="enable-background:new 0 0 438.533 438.533;"
	 xml:space="preserve">
<g>
	<path d="M409.133,109.203c-19.608-33.592-46.205-60.189-79.798-79.796C295.736,9.801,259.058,0,219.273,0
		c-39.781,0-76.47,9.801-110.063,29.407c-33.595,19.604-60.192,46.201-79.8,79.796C9.801,142.8,0,179.489,0,219.267
		c0,39.78,9.804,76.463,29.407,110.062c19.607,33.592,46.204,60.189,79.799,79.798c33.597,19.605,70.283,29.407,110.063,29.407
		s76.47-9.802,110.065-29.407c33.593-19.602,60.189-46.206,79.795-79.798c19.603-33.596,29.403-70.284,29.403-110.062
		C438.533,179.485,428.732,142.795,409.133,109.203z M361.449,232.399L258.1,335.755l-25.98,25.981
		c-3.426,3.422-7.707,5.133-12.849,5.133c-5.136,0-9.419-1.711-12.847-5.133l-25.981-25.981L77.086,232.399
		c-3.422-3.43-5.137-7.707-5.137-12.849c0-5.137,1.709-9.42,5.137-12.847l25.981-25.981c3.621-3.617,7.9-5.424,12.85-5.424
		c4.952,0,9.235,1.807,12.85,5.424l53.959,53.955V91.36c0-4.949,1.809-9.233,5.426-12.847c3.616-3.618,7.898-5.428,12.847-5.428
		h36.547c4.948,0,9.233,1.81,12.847,5.428c3.614,3.614,5.428,7.898,5.428,12.847v143.318l53.954-53.955
		c3.429-3.427,7.703-5.14,12.847-5.14c5.141,0,9.421,1.713,12.847,5.14l25.981,25.981c3.432,3.427,5.14,7.71,5.14,12.847
		C366.589,224.692,364.881,228.974,361.449,232.399z"/>
</g>
<g>
</g>
<g>
</g>
<g>
</g>
<g>
</g>
<g>
</g>
<g>
</g>
<g>
</g>
<g>
</g>
<g>
</g>
<g>
</g>
<g>
</g>
<g>
</g>
<g>
</g>
<g>
</g>
<g>
</g>
</svg>
