<?xml version="1.0" encoding="iso-8859-1"?>
<!-- Generator: Adobe Illustrator 16.0.0, SVG Export Plug-In . SVG Version: 6.00 Build 0)  -->
<!DOCTYPE svg PUBLIC "-//W3C//DTD SVG 1.1//EN" "http://www.w3.org/Graphics/SVG/1.1/DTD/svg11.dtd">
<svg version="1.1" id="Capa_1" xmlns="http://www.w3.org/2000/svg" xmlns:xlink="http://www.w3.org/1999/xlink" x="0px" y="0px"
	 width="511.626px" height="511.627px" viewBox="0 0 511.626 511.627" style="enable-background:new 0 0 511.626 511.627;"
	 xml:space="preserve">
<g>
	<g>
		<path d="M215.232,401.991h-54.818V9.136c0-2.663-0.854-4.856-2.568-6.567C156.133,0.859,153.946,0,151.279,0H96.461
			c-2.663,0-4.856,0.855-6.567,2.568c-1.709,1.715-2.568,3.905-2.568,6.567v392.855H32.507c-4.184,0-7.039,1.902-8.563,5.708
			c-1.525,3.621-0.856,6.95,1.997,9.996l91.361,91.365c2.096,1.707,4.281,2.562,6.567,2.562c2.474,0,4.664-0.855,6.567-2.562
			l91.076-91.078c1.906-2.279,2.856-4.571,2.856-6.844c0-2.676-0.854-4.859-2.568-6.584
			C220.086,402.847,217.9,401.991,215.232,401.991z"/>
		<path d="M468.475,481.361l-65.664-189.01h-46.25L290.9,481.364H270.92v30.263h81.934v-30.266h-21.412l13.418-41.11h69.381
			l13.415,41.11H406.25v30.266h82.228v-30.266H468.475z M354.278,408.846l20.841-62.242c0.76-2.283,1.479-5.045,2.143-8.278
			c0.66-3.234,0.996-4.948,0.996-5.137l0.855-5.715h1.143c0,0.767,0.191,2.669,0.562,5.715l3.433,13.415l20.554,62.242H354.278z"/>
		<path d="M463.055,152.745h-34.537v33.975H357.71c-4.001,0-6.852,0.097-8.556,0.288l-4.004,0.854v-0.854l3.142-2.858
			c2.851-3.422,4.853-5.896,5.996-7.421L459.632,25.41V0H297.754v65.387h34.259V32.552h66.232c3.426,0,6.283-0.288,8.56-0.859
			c0.571,0,1.286-0.048,2.142-0.144c0.855-0.094,1.476-0.144,1.854-0.144v0.855l-3.141,2.568c-1.708,1.713-3.71,4.283-5.996,7.71
			L296.32,193.569v25.697h166.735V152.745z"/>
	</g>
</g>
<g>
</g>
<g>
</g>
<g>
</g>
<g>
</g>
<g>
</g>
<g>
</g>
<g>
</g>
<g>
</g>
<g>
</g>
<g>
</g>
<g>
</g>
<g>
</g>
<g>
</g>
<g>
</g>
<g>
</g>
</svg>
