<?xml version="1.0" encoding="iso-8859-1"?>
<!-- Generator: Adobe Illustrator 16.0.0, SVG Export Plug-In . SVG Version: 6.00 Build 0)  -->
<!DOCTYPE svg PUBLIC "-//W3C//DTD SVG 1.1//EN" "http://www.w3.org/Graphics/SVG/1.1/DTD/svg11.dtd">
<svg version="1.1" id="Capa_1" xmlns="http://www.w3.org/2000/svg" xmlns:xlink="http://www.w3.org/1999/xlink" x="0px" y="0px"
	 width="511.626px" height="511.627px" viewBox="0 0 511.626 511.627" style="enable-background:new 0 0 511.626 511.627;"
	 xml:space="preserve">
<g>
	<g>
		<path d="M215.232,401.991h-54.818V9.136c0-2.663-0.854-4.856-2.568-6.567C156.133,0.859,153.946,0,151.279,0H96.461
			c-2.663,0-4.856,0.855-6.567,2.568c-1.709,1.715-2.568,3.905-2.568,6.567v392.855H32.507c-4.184,0-7.039,1.902-8.563,5.708
			c-1.525,3.621-0.856,6.95,1.997,9.996l91.361,91.365c2.096,1.707,4.281,2.562,6.567,2.562c2.474,0,4.664-0.855,6.567-2.562
			l91.076-91.078c1.906-2.279,2.856-4.571,2.856-6.844c0-2.676-0.854-4.859-2.568-6.584
			C220.086,402.847,217.9,401.991,215.232,401.991z"/>
		<path d="M428.511,479.082h-70.808c-3.997,0-6.852,0.191-8.559,0.568l-4.001,0.571v-0.571l3.142-3.142
			c2.848-3.419,4.853-5.896,5.996-7.409l105.344-151.331v-25.406H297.744v65.377h34.263v-32.832h66.236
			c3.422,0,6.283-0.288,8.555-0.855c0.572,0,1.287-0.048,2.143-0.145c0.853-0.085,1.475-0.144,1.852-0.144v0.855l-3.142,2.574
			c-1.704,1.711-3.713,4.273-5.995,7.706L296.31,485.934v25.693h166.734v-66.521h-34.54v33.976H428.511z"/>
		<path d="M468.475,189.008L402.807,0h-46.25l-65.664,189.008h-19.979v30.264h81.933v-30.264h-21.409l13.419-41.112h69.381
			l13.415,41.112H406.25v30.264h82.228v-30.264H468.475z M354.278,116.487l20.841-62.241c0.76-2.285,1.479-5.046,2.143-8.28
			c0.66-3.236,0.996-4.949,0.996-5.139l0.855-5.708h1.143c0,0.761,0.191,2.664,0.562,5.708l3.433,13.418l20.554,62.241H354.278z"/>
	</g>
</g>
<g>
</g>
<g>
</g>
<g>
</g>
<g>
</g>
<g>
</g>
<g>
</g>
<g>
</g>
<g>
</g>
<g>
</g>
<g>
</g>
<g>
</g>
<g>
</g>
<g>
</g>
<g>
</g>
<g>
</g>
</svg>
